<svg width="24" height="24" viewBox="0 0 24 24" fill="none" xmlns="http://www.w3.org/2000/svg">
<path d="M12 20.9968C7.02944 20.9968 3 16.9674 3 11.9968C3 7.02626 7.02944 2.99683 12 2.99683C16.9706 2.99683 21 7.02626 21 11.9968C21 16.9674 16.9706 20.9968 12 20.9968Z" fill="#5E18EA"/>
<path fill-rule="evenodd" clip-rule="evenodd" d="M20 11.9968C20 7.57855 16.4183 3.99683 12 3.99683C7.58172 3.99683 4 7.57855 4 11.9968C4 16.4151 7.58172 19.9968 12 19.9968C16.4183 19.9968 20 16.4151 20 11.9968ZM15.707 9.28979C15.3165 8.89927 14.6835 8.89927 14.293 9.28979L11 12.5828L9.70703 11.2898L9.63086 11.2214C9.23809 10.9011 8.65908 10.9237 8.29297 11.2898C7.92685 11.6559 7.90426 12.2349 8.22461 12.6277L8.29297 12.7039L10.293 14.7039C10.6835 15.0944 11.3165 15.0944 11.707 14.7039L15.707 10.7039C16.0976 10.3133 16.0976 9.68032 15.707 9.28979Z" fill="#5E18EA"/>
<path fill-rule="evenodd" clip-rule="evenodd" d="M22 11.9968C22 17.5197 17.5228 21.9968 12 21.9968C6.47715 21.9968 2 17.5197 2 11.9968C2 6.47398 6.47715 1.99683 12 1.99683C17.5228 1.99683 22 6.47398 22 11.9968ZM12 3.99683C16.4183 3.99683 20 7.57855 20 11.9968C20 16.4151 16.4183 19.9968 12 19.9968C7.58172 19.9968 4 16.4151 4 11.9968C4 7.57855 7.58172 3.99683 12 3.99683Z" fill="#5E18EA"/>
<path d="M14.293 9.28979C14.6835 8.89927 15.3165 8.89927 15.707 9.28979C16.0976 9.68032 16.0976 10.3133 15.707 10.7039L11.707 14.7039C11.3165 15.0944 10.6835 15.0944 10.293 14.7039L8.29297 12.7039L8.22461 12.6277C7.90426 12.2349 7.92685 11.6559 8.29297 11.2898C8.65908 10.9237 9.23809 10.9011 9.63086 11.2214L9.70703 11.2898L11 12.5828L14.293 9.28979Z" fill="white"/>
</svg>
