<svg width="23" height="24" viewBox="0 0 23 24" fill="none" xmlns="http://www.w3.org/2000/svg">
<path d="M9.56772 16H4.78385V21M13.3948 8H18.1787V3M4.38489 9.0034C4.92134 7.61566 5.8195 6.41304 6.9773 5.53223C8.1351 4.65141 9.5073 4.12752 10.9357 4.02051C12.364 3.9135 13.7916 4.2274 15.0578 4.92661C16.3239 5.62582 17.3762 6.68254 18.0965 7.97612M18.5782 14.9971C18.0417 16.3848 17.1436 17.5874 15.9858 18.4682C14.828 19.3491 13.4572 19.8723 12.0288 19.9793C10.6004 20.0863 9.17167 19.7725 7.90551 19.0732C6.63935 18.374 5.58642 17.3175 4.86608 16.0239" stroke="white" stroke-width="2" stroke-linecap="round" stroke-linejoin="round"/>
</svg>
